<svg viewBox="0 0 1024 1063.18" xmlns="http://www.w3.org/2000/svg"><path d="M55.652 989.058L108.5 736.486 756.2 85.31c25.776-25.69 61.306-41.61 100.555-41.716h.311c78.684 0 142.47 63.786 142.47 142.47 0 39.37-15.97 75.01-41.783 100.796L308.447 936.21zm93.718-230.534l-35.84 173.01 173.01-36.195 639.778-640c17.735-17.728 28.705-42.22 28.705-69.277 0-54.095-43.853-97.948-97.948-97.948H856.777c-26.948.054-51.334 10.982-69.01 28.63v-.002zm870.178 264.548H0V978.55h1019.548zm-185.39-644.05L664.087 208.947l31.52-31.52L865.68 347.5z"/></svg>