<?xml version="1.0" standalone="no"?>
<!DOCTYPE svg PUBLIC "-//W3C//DTD SVG 20010904//EN"
 "http://www.w3.org/TR/2001/REC-SVG-20010904/DTD/svg10.dtd">
<svg version="1.0" xmlns="http://www.w3.org/2000/svg"
 width="300.000000pt" height="81.000000pt" viewBox="0 0 300.000000 81.000000"
 preserveAspectRatio="xMidYMid meet">
<metadata>
Created by potrace 1.10, written by Peter Selinger 2001-2011
</metadata>
<g transform="translate(0.000000,81.000000) scale(0.100000,-0.100000)"
fill="#000000" stroke="none">
<path d="M117 776 c-21 -19 -47 -56 -60 -82 -20 -44 -22 -65 -22 -204 0 -143
2 -159 24 -203 26 -54 83 -101 133 -111 26 -5 39 -16 60 -56 32 -57 73 -83
131 -82 82 1 102 70 32 111 -19 11 -35 27 -35 35 0 13 60 95 70 95 3 0 14 -14
25 -31 35 -55 69 -73 138 -73 49 0 69 5 95 24 l33 23 24 -22 c18 -17 35 -22
77 -22 29 0 76 0 103 -1 28 0 84 0 125 -1 41 0 96 3 123 7 53 7 57 1 32 -47
-8 -15 -15 -36 -15 -46 0 -29 37 -54 78 -53 53 2 237 2 304 0 48 -2 61 2 80
20 21 21 21 26 9 55 -23 58 -26 82 -8 75 37 -14 85 -18 124 -9 27 6 59 6 89 0
31 -7 59 -7 87 1 30 7 59 7 102 -1 61 -12 61 -12 80 -62 53 -135 251 -160 325
-42 24 40 26 69 4 90 -23 23 -40 20 -76 -14 -34 -33 -78 -40 -98 -15 -21 25
-1 38 50 31 63 -8 84 13 75 76 -5 37 -2 47 19 71 14 16 27 34 29 40 2 7 8 8
13 4 4 -4 2 -27 -5 -50 -24 -79 -24 -91 -1 -112 16 -14 36 -19 85 -19 55 0 69
4 90 24 23 22 28 23 48 10 71 -44 97 -49 150 -26 41 17 87 70 87 100 0 21 -27
56 -44 56 -4 0 -22 -11 -40 -25 -38 -29 -52 -31 -60 -9 -11 28 -7 33 53 63 97
49 121 100 85 178 -20 41 -49 62 -104 74 -52 12 -117 -14 -151 -60 -12 -17
-26 -31 -31 -31 -4 0 -8 63 -8 140 l0 140 -90 0 c-84 0 -90 -1 -90 -20 0 -12
7 -34 15 -51 19 -35 13 -49 -21 -49 -15 0 -38 -13 -56 -30 -23 -24 -41 -31
-78 -34 -57 -5 -83 -17 -126 -58 l-32 -30 -21 30 c-12 17 -41 38 -66 47 -38
15 -52 16 -91 6 -26 -7 -65 -9 -86 -6 -27 5 -46 2 -63 -9 -22 -14 -25 -14 -47
3 l-23 19 27 25 c46 43 46 87 0 140 -18 20 -73 23 -103 5 -17 -10 -23 -10 -26
0 -3 8 -25 12 -62 12 -82 0 -89 -11 -117 -177 -30 -180 -33 -192 -44 -173 -4
8 -18 80 -29 160 -27 184 -31 190 -119 190 -63 0 -69 -2 -84 -27 -15 -26 -14
-30 3 -63 19 -35 27 -130 10 -130 -5 0 -14 7 -21 15 -18 21 -231 22 -263 1
-20 -13 -25 -13 -45 3 l-24 17 31 33 c38 41 40 79 5 120 -21 25 -34 31 -64 31
-73 0 -105 -89 -54 -150 15 -17 24 -33 22 -36 -9 -9 -340 -6 -347 3 -4 4 -16
30 -26 57 -10 27 -35 66 -58 87 l-39 39 -97 0 c-96 0 -97 0 -134 -34z m2495
-228 c-3 -264 -1 -298 23 -298 8 0 15 -8 15 -17 0 -16 -9 -18 -75 -15 -57 3
-75 7 -75 18 0 8 6 14 14 14 22 0 26 34 26 273 0 221 -1 229 -20 234 -11 3
-20 14 -20 24 0 16 8 19 58 19 l57 0 -3 -252z m-2283 217 c75 -38 101 -111
101 -278 -1 -161 -22 -226 -79 -252 -19 -8 -22 -16 -17 -44 8 -52 32 -81 66
-81 24 0 30 -4 30 -21 0 -17 -4 -20 -22 -15 -13 3 -35 6 -49 6 -36 0 -67 33
-81 86 -11 40 -15 44 -43 44 -16 0 -49 9 -73 20 -34 15 -47 29 -65 67 -19 42
-22 65 -22 183 0 74 4 152 8 172 9 45 50 96 92 114 40 18 119 17 154 -1z m549
-1 c40 -28 24 -94 -22 -94 -49 1 -71 55 -37 89 25 25 30 26 59 5z m491 -66 c7
-46 25 -167 42 -269 16 -102 29 -196 29 -209 0 -14 4 -20 8 -14 9 10 41 171
82 409 l27 160 51 3 c46 3 52 1 52 -16 0 -11 -8 -22 -18 -24 -16 -5 -20 -20
-25 -98 -9 -118 -9 -244 0 -400 5 -108 8 -123 25 -128 10 -2 18 -12 18 -21 0
-13 -12 -16 -75 -16 -63 0 -75 3 -75 16 0 9 9 19 20 22 19 5 20 14 20 175 0
93 3 191 6 218 4 32 3 45 -3 39 -5 -5 -20 -71 -33 -145 -62 -359 -53 -324 -87
-326 l-30 -2 -44 242 -44 241 -3 -100 c-5 -162 7 -345 24 -345 8 0 14 -8 14
-17 0 -15 -10 -18 -55 -19 -45 0 -55 3 -55 17 0 9 9 19 20 22 19 5 20 14 20
300 0 163 -3 302 -6 311 -3 9 -12 16 -20 16 -8 0 -14 9 -14 20 0 18 7 20 59
20 l59 0 11 -82z m409 66 c41 -28 22 -94 -28 -94 -48 0 -66 54 -30 90 24 24
29 24 58 4z m-78 -109 c26 -28 26 -30 -12 -39 -27 -6 -28 -5 -28 29 0 42 8 44
40 10z m800 -25 c15 -28 -4 -60 -35 -60 -37 0 -45 -26 -23 -68 34 -65 7 -168
-50 -191 l-28 -12 24 -50 c25 -49 24 -71 0 -52 -7 6 -28 14 -46 18 -48 10 -82
-15 -82 -60 0 -51 28 -75 90 -75 51 0 70 11 96 56 18 29 28 9 14 -27 -28 -66
-122 -88 -207 -50 -74 34 -94 121 -42 177 24 26 77 32 123 14 57 -21 15 28
-44 53 -46 19 -70 47 -81 94 -22 93 19 174 95 189 34 6 46 3 97 -24 4 -1 9 12
13 29 3 18 11 38 17 46 17 20 57 16 69 -7z m-422 -51 c56 -19 66 -49 70 -196
3 -106 7 -133 18 -133 8 0 14 -7 14 -15 0 -12 -14 -15 -65 -15 -36 0 -68 0
-72 -1 -18 -1 -12 29 7 34 19 5 20 13 20 131 0 113 -2 128 -20 146 -25 25 -32
25 -60 2 -21 -17 -24 -30 -28 -125 -5 -117 1 -157 23 -157 8 0 15 -8 15 -17 0
-16 -9 -18 -75 -15 -53 3 -75 7 -75 17 0 7 9 15 20 18 19 5 20 14 20 145 0
131 -1 140 -20 145 -11 3 -20 12 -20 21 0 24 55 21 73 -4 13 -19 15 -19 28 -4
27 33 75 41 127 23z m785 -2 c39 -17 60 -52 55 -98 -3 -31 -9 -37 -80 -73 -77
-39 -78 -39 -78 -78 0 -60 14 -78 60 -78 32 0 43 6 62 30 30 41 54 41 33 1
-35 -68 -101 -89 -162 -51 -51 31 -68 72 -68 170 0 98 17 139 68 170 38 23 66
25 110 7z m-2253 -11 c0 -7 -9 -16 -20 -19 -19 -5 -20 -14 -20 -141 0 -134 0
-136 25 -152 23 -15 27 -15 50 0 25 16 25 18 25 152 0 110 -3 136 -15 140 -8
4 -15 12 -15 20 0 11 16 14 65 14 49 0 65 -3 65 -14 0 -7 -9 -16 -20 -19 -19
-5 -20 -14 -20 -125 0 -65 -5 -133 -11 -151 -19 -55 -93 -76 -164 -47 -50 21
-58 46 -63 189 -3 97 -8 130 -18 134 -8 3 -14 11 -14 19 0 11 18 14 75 14 57
0 75 -3 75 -14z m282 -140 c-3 -148 -2 -156 17 -168 40 -25 25 -38 -44 -38
-36 0 -68 -1 -72 -2 -5 -1 -9 6 -11 15 -2 10 3 17 11 17 23 0 27 23 27 156 0
113 -2 125 -20 136 -38 24 -24 38 38 38 l57 0 -3 -154z m308 135 c0 -11 -16
-48 -36 -83 -20 -34 -54 -98 -75 -140 l-39 -78 60 0 c33 0 61 5 61 10 1 6 2
16 3 22 0 7 9 14 19 16 14 3 17 -4 17 -45 l0 -48 -125 3 c-101 3 -125 6 -125
18 0 8 34 80 76 160 l76 145 -58 -3 c-53 -3 -59 -5 -62 -26 -2 -15 -9 -22 -20
-20 -8 2 -15 6 -14 11 1 4 2 23 2 42 l0 35 120 0 c111 0 120 -1 120 -19z m592
-136 c-3 -146 -2 -155 18 -167 39 -25 23 -36 -55 -40 -66 -3 -75 -1 -75 15 0
9 6 17 14 17 20 0 26 33 26 162 0 107 -2 118 -20 128 -11 6 -20 17 -20 25 0
12 14 15 58 15 l57 0 -3 -155z m-552 -10 c0 -52 -2 -95 -5 -95 -3 0 -14 5 -24
12 -15 9 -24 8 -46 -6 -15 -10 -30 -15 -33 -11 -8 8 88 195 100 195 4 0 8 -43
8 -95z m440 -15 c0 -47 -5 -92 -10 -100 -7 -10 -10 22 -10 100 0 78 3 110 10
100 5 -8 10 -53 10 -100z m-1050 5 c0 -57 -4 -95 -10 -95 -6 0 -10 38 -10 95
0 57 4 95 10 95 6 0 10 -38 10 -95z m1220 -1 c0 -61 -4 -93 -10 -89 -5 3 -10
46 -10 96 0 53 4 89 10 89 6 0 10 -39 10 -96z m-831 49 c-16 -47 -63 -126 -76
-131 -10 -3 -13 16 -13 73 l0 77 28 -6 c15 -3 34 -2 42 4 25 16 30 12 19 -17z
m1011 -62 c0 -50 -4 -93 -10 -96 -6 -4 -10 28 -10 89 0 57 4 96 10 96 6 0 10
-36 10 -89z"/>
<path d="M213 740 c-47 -20 -58 -54 -62 -207 l-3 -143 47 0 c40 0 52 -5 81
-34 22 -22 34 -44 34 -61 0 -33 22 -29 31 6 11 38 10 330 -1 370 -6 20 -18 43
-28 52 -23 21 -70 29 -99 17z m83 -75 c15 -36 21 -265 7 -265 -5 0 -30 9 -58
19 l-50 19 0 109 c0 126 10 153 56 153 25 0 33 -6 45 -35z"/>
<path d="M150 350 c0 -35 32 -82 66 -96 20 -8 38 -14 40 -12 6 7 -19 83 -34
101 -16 18 -72 24 -72 7z"/>
<path d="M2296 528 c-18 -26 -22 -131 -6 -172 7 -20 17 -26 39 -26 41 0 51 23
51 110 0 39 -5 80 -10 91 -14 26 -55 24 -74 -3z"/>
<path d="M2776 534 c-11 -10 -16 -34 -16 -69 l0 -54 47 20 c26 11 51 26 55 32
10 15 -1 70 -16 79 -19 13 -54 9 -70 -8z"/>
</g>
</svg>
