<svg xmlns="http://www.w3.org/2000/svg" width="1276" height="1046" viewBox="0 0 1276 1046" version="1.1"><path d="M 505.500 161.503 L 373.500 237.845 373.500 391.547 L 373.500 545.249 505 621.316 L 636.500 697.383 639 697.388 L 641.500 697.393 773 621.325 L 904.500 545.258 904.500 391.554 L 904.500 237.850 772.191 161.425 L 639.881 85 638.691 85.081 L 637.500 85.162 505.500 161.503 M 513.642 177.849 L 403.784 241.331 406.142 242.523 L 408.500 243.716 476.793 269.981 L 545.087 296.246 545.499 295.834 L 545.912 295.421 585.016 205.104 L 624.120 114.786 623.810 114.577 L 623.500 114.367 513.642 177.849 M 635.776 117 L 634.299 120.500 595.650 209.669 L 557 298.838 557 299.847 L 557 300.856 562.250 302.835 L 567.500 304.815 605.500 319.464 L 643.500 334.113 681.658 319.459 L 719.817 304.806 718.496 301.653 L 717.175 298.500 677.980 208 L 638.785 117.500 638.019 115.500 L 637.254 113.500 635.776 117 M 659.489 118.966 L 660.104 120.904 698.122 208.702 L 736.139 296.500 736.821 297.201 L 737.503 297.903 807.242 271.128 L 876.981 244.352 877.417 243.916 L 877.853 243.480 785.677 190.259 L 693.500 137.038 676.187 127.033 L 658.874 117.027 659.489 118.966 M 804.724 284.316 L 741.948 308.500 742.414 310.380 L 742.881 312.260 756.190 343.115 L 769.500 373.970 770.166 373.735 L 770.831 373.500 818.015 319 L 865.199 264.500 867.274 262.250 L 869.349 260 868.424 260.066 L 867.500 260.133 804.724 284.316 M 391 391.487 L 391 520.429 392.439 518.964 L 393.878 517.500 448.406 454.529 L 502.933 391.558 501.121 389.529 L 499.309 387.500 447.517 327.500 L 395.726 267.500 393.363 265.023 L 391 262.545 391 391.487 M 419.708 277.755 L 432.500 292.509 470.422 336.282 L 508.344 380.056 509.152 379.248 L 509.960 378.440 523.988 346.028 L 538.016 313.616 537.258 312.947 L 536.500 312.279 472.293 287.639 L 408.086 263 407.501 263 L 406.916 263 419.708 277.755 M 833.500 329.066 L 780.500 390.258 780.500 391.513 L 780.500 392.768 833.500 454.010 L 886.500 515.252 886.758 453.048 L 887.015 390.845 886.758 329.359 L 886.500 267.873 833.500 329.066 M 691.179 328.008 L 660.858 339.809 660.509 340.158 L 660.159 340.507 704.830 357.669 L 749.500 374.831 749.743 374.589 L 749.986 374.347 737.353 345.174 L 724.721 316 723.110 316.103 L 721.500 316.207 691.179 328.008 M 548 319.861 L 546.780 322.500 534.306 351.332 L 521.831 380.165 522.166 380.474 L 522.500 380.783 569.742 362.641 L 616.984 344.500 616.992 343.943 L 617 343.386 591.750 333.699 L 566.500 324.013 557.860 320.617 L 549.220 317.222 548 319.861 M 581 370.538 L 528.500 390.922 527.635 391.250 L 526.769 391.577 580.531 412.247 L 634.294 432.918 686.300 412.923 L 738.306 392.928 739.903 392.035 L 741.500 391.141 738.500 390.015 L 735.500 388.889 684.766 369.444 L 634.033 350 633.766 350.076 L 633.500 350.153 581 370.538 M 522 402.599 L 522 403.225 534.390 431.863 L 546.780 460.500 547.975 463.085 L 549.170 465.670 583.085 452.632 L 617 439.595 616.991 439.047 L 616.983 438.500 572.741 421.558 L 528.500 404.616 525.250 403.295 L 522 401.973 522 402.599 M 457.818 461.222 L 407.293 519.500 407.558 519.829 L 407.824 520.157 472.162 495.431 L 536.500 470.705 537.258 470.045 L 538.016 469.384 523.988 436.972 L 509.960 404.560 509.152 403.752 L 508.343 402.943 457.818 461.222 M 704.323 425.353 L 660.147 442.500 661.323 443.151 L 662.500 443.801 692.720 455.401 L 722.940 467 723.805 467 L 724.670 467 736.938 438.750 L 749.207 410.500 749.710 409.250 L 750.214 408 749.357 408.103 L 748.500 408.205 704.323 425.353 M 756.173 439.958 L 742.846 470.872 742.393 472.686 L 741.940 474.500 805.127 498.760 L 868.313 523.021 868.545 522.760 L 868.778 522.500 819.839 466 L 770.900 409.500 770.200 409.272 L 769.500 409.044 756.173 439.958 M 606.500 463.051 L 570.500 477.014 563.665 479.627 L 556.829 482.240 557.329 484.151 L 557.829 486.062 597.165 577.011 L 636.500 667.960 637.098 667.980 L 637.696 668 676.537 578.250 L 715.379 488.500 717.627 483.363 L 719.875 478.225 682.959 464.024 L 646.042 449.824 644.271 449.456 L 642.500 449.088 606.500 463.051 M 736.194 486.672 L 735.235 488.500 697.025 576.824 L 658.815 665.148 659.157 665.436 L 659.500 665.723 768.706 602.617 L 877.911 539.511 877.206 538.921 L 876.500 538.330 808 512.044 L 739.500 485.759 738.327 485.302 L 737.153 484.845 736.194 486.672 M 474.151 514.034 L 404.802 540.865 404.355 541.312 L 403.908 541.759 451.204 569.062 L 498.500 596.365 561.343 632.646 L 624.186 668.928 623.547 667.214 L 622.907 665.500 584.275 576.250 L 545.644 487 544.572 487.101 L 543.500 487.203 474.151 514.034 M 298.286 770.397 L 294.072 771.768 289.729 774.313 L 285.385 776.859 281.264 781.330 L 277.142 785.801 275.163 789.681 L 273.184 793.560 271.674 799.030 L 270.164 804.500 269.533 810.742 L 268.902 816.984 270.032 825.232 L 271.161 833.480 274.433 840.490 L 277.706 847.500 281.446 851.296 L 285.186 855.092 288.843 857.379 L 292.500 859.665 296 860.908 L 299.500 862.150 305.252 862.999 L 311.004 863.849 317.355 862.949 L 323.707 862.050 325.226 861.467 L 326.745 860.884 330.457 865.942 L 334.170 871 341.085 871 L 348 871 348 869.956 L 348 868.912 342.588 861.759 L 337.176 854.607 341.075 850.177 L 344.974 845.748 347.372 840.624 L 349.771 835.500 350.885 830.201 L 352 824.902 352 815.661 L 352 806.420 350.450 800.470 L 348.900 794.519 346.700 790.097 L 344.500 785.675 340.305 781.002 L 336.110 776.329 329.305 772.952 L 322.500 769.575 312.500 769.300 L 302.500 769.025 298.286 770.397 M 580 815.960 L 580 862 586.486 862 L 592.972 862 593.236 830.261 L 593.500 798.522 606.500 830.294 L 619.500 862.066 625.990 861.783 L 632.481 861.500 645.490 829.878 L 658.500 798.256 658.764 830.128 L 659.028 862 665.514 862 L 672 862 672 815.960 L 672 769.919 663.916 770.210 L 655.832 770.500 641.216 806.250 L 626.600 842 625.972 842 L 625.344 842 610.743 806.250 L 596.141 770.500 588.071 770.210 L 580 769.919 580 815.960 M 910.667 770.667 L 910 771.333 910 816.667 L 910 862 917 862 L 924 862 924 816 L 924 770 917.667 770 L 911.333 770 910.667 770.667 M 299.110 783.633 L 293.827 786.265 290.565 790.760 L 287.304 795.254 285.402 800.377 L 283.500 805.500 283.500 816 L 283.500 826.500 285.306 831.678 L 287.113 836.856 290.051 840.912 L 292.990 844.968 297.025 847.516 L 301.060 850.063 305.925 850.986 L 310.790 851.908 314.395 851.323 L 318 850.738 318 850.073 L 318 849.408 311.964 841.535 L 305.928 833.663 307.214 832.847 L 308.500 832.031 313.827 832.015 L 319.154 832 321.851 834.750 L 324.549 837.500 326.685 840.486 L 328.820 843.473 330.817 841.665 L 332.815 839.857 334.902 835.006 L 336.989 830.154 338.107 822.636 L 339.226 815.117 338.044 808.309 L 336.863 801.500 335.044 797.378 L 333.225 793.255 329.549 789.186 L 325.873 785.117 321.621 783.058 L 317.369 781 310.881 781 L 304.393 781 299.110 783.633 M 763.044 793.577 L 759.589 795.076 756.294 797.589 L 753 800.102 753 796.551 L 753 793 746.500 793 L 740 793 740 827.500 L 740 862 746.950 862 L 753.901 862 754.200 837.571 L 754.500 813.142 756.592 810.321 L 758.684 807.500 762.092 805.161 L 765.500 802.822 770.772 803.245 L 776.044 803.668 779.028 806.527 L 782.013 809.386 783.001 812.943 L 783.989 816.500 783.994 839.250 L 784 862 790.559 862 L 797.118 862 796.809 834.750 L 796.500 807.500 794.259 803.308 L 792.018 799.116 788.759 796.696 L 785.500 794.276 782.101 793.138 L 778.702 792 772.601 792.039 L 766.500 792.078 763.044 793.577 M 842.139 793.147 L 838.779 794.114 834.969 796.519 L 831.159 798.924 828.698 802.212 L 826.236 805.500 824.610 808.716 L 822.984 811.931 821.801 819.540 L 820.618 827.148 821.813 834.115 L 823.008 841.082 825.464 845.929 L 827.920 850.776 832.077 854.334 L 836.233 857.891 840.795 859.446 L 845.356 861 850.928 860.994 L 856.500 860.989 860.277 859.940 L 864.055 858.891 867.527 855.842 L 871 852.793 871 859.429 L 871 866.064 869.629 869.282 L 868.258 872.500 865.878 874.690 L 863.499 876.880 858.822 877.928 L 854.146 878.976 849.079 878.015 L 844.012 877.054 841.607 875.478 L 839.202 873.903 837.962 870.909 L 836.722 867.915 830.111 868.207 L 823.500 868.500 823.790 871.500 L 824.080 874.500 826.790 878.500 L 829.500 882.500 835.452 885.473 L 841.404 888.446 851.065 888.834 L 860.726 889.222 866.404 887.571 L 872.083 885.920 876.198 882.210 L 880.313 878.500 882.134 874.500 L 883.956 870.500 883.978 831.750 L 884 793 877.500 793 L 871 793 871 796.547 L 871 800.094 867.189 797.031 L 863.378 793.969 859.945 792.984 L 856.513 792 851.007 792.090 L 845.500 792.180 842.139 793.147 M 967.097 794.179 L 961.693 796.254 957.573 800.377 L 953.452 804.500 951.352 809 L 949.251 813.500 948.125 818.799 L 947 824.098 947 828.839 L 947 833.580 948.536 839.540 L 950.073 845.500 953.286 850.296 L 956.500 855.093 960.941 858.059 L 965.382 861.026 969.441 862.229 L 973.500 863.431 981.500 863.385 L 989.500 863.340 994.500 861.119 L 999.500 858.898 1002.835 855.699 L 1006.171 852.500 1007.585 849.800 L 1009 847.099 1009 846.050 L 1009 845 1002.187 845 L 995.374 845 992.536 847.962 L 989.699 850.924 984.594 852.066 L 979.489 853.209 974.995 852.001 L 970.500 850.792 966.800 846.906 L 963.100 843.021 962.055 839.260 L 961.011 835.500 961.006 833.768 L 961 832.036 985.250 831.768 L 1009.500 831.500 1009.418 822.956 L 1009.336 814.413 1006.807 808.890 L 1004.279 803.367 1000.510 799.707 L 996.742 796.047 991.333 794.024 L 985.925 792 979.212 792.052 L 972.500 792.104 967.097 794.179 M 377.262 818.750 L 377.721 844.500 378.915 848.277 L 380.109 852.055 383.296 855.684 L 386.483 859.314 390.491 861.135 L 394.500 862.956 400 862.972 L 405.500 862.989 409.321 861.928 L 413.142 860.867 417.071 857.317 L 421 853.767 421 857.884 L 421 862 427.500 862 L 434 862 434 827.500 L 434 793 427.595 793 L 421.190 793 420.845 815.750 L 420.500 838.500 417.784 843.120 L 415.068 847.740 411.633 849.370 L 408.198 851 404.003 851 L 399.809 851 397.028 849.020 L 394.247 847.039 392.623 843.619 L 391 840.198 391 816.599 L 391 793 383.902 793 L 376.803 793 377.262 818.750 M 460 827.500 L 460 862 467 862 L 474 862 474 827.500 L 474 793 467 793 L 460 793 460 827.500 M 500 798.484 L 500 804 518 804 L 536 804 536 804.478 L 536 804.957 517.010 829.228 L 498.020 853.500 498.010 857.750 L 498 862 526.552 862 L 555.105 862 554.802 856.750 L 554.500 851.500 535.750 851.228 L 517 850.956 517 850.532 L 517 850.107 535.538 825.804 L 554.076 801.500 553.788 797.500 L 553.500 793.500 526.750 793.234 L 500 792.967 500 798.484 M 700 827.500 L 700 862 707 862 L 714 862 714 827.500 L 714 793 707 793 L 700 793 700 827.500 M 845.366 804.919 L 842.232 806.830 839.691 810.165 L 837.150 813.500 835.944 818.298 L 834.738 823.097 835.219 829.798 L 835.700 836.500 837.828 840.666 L 839.955 844.832 843.227 847.166 L 846.500 849.500 853.177 849.500 L 859.853 849.500 862.677 847.411 L 865.500 845.323 867.892 841.039 L 870.285 836.756 870.769 829.989 L 871.253 823.222 870.001 818.003 L 868.748 812.783 865.726 809.340 L 862.703 805.898 859.901 804.449 L 857.099 803 852.800 803.004 L 848.500 803.007 845.366 804.919 M 970.440 805.394 L 966.379 807.887 963.690 812.829 L 961 817.771 961 819.385 L 961 821 978.500 821 L 996 821 995.984 818.250 L 995.967 815.500 993.734 811.594 L 991.500 807.688 988.763 805.659 L 986.027 803.630 980.263 803.266 L 974.500 802.902 970.440 805.394" stroke="none" fill="#ebfb06" fill-rule="evenodd"/></svg>